<?xml version="1.0" standalone="no"?>
<!DOCTYPE svg PUBLIC "-//W3C//DTD SVG 20010904//EN"
 "http://www.w3.org/TR/2001/REC-SVG-20010904/DTD/svg10.dtd">
<svg version="1.0" xmlns="http://www.w3.org/2000/svg"
 width="700.000000pt" height="700.000000pt" viewBox="0 0 700.000000 700.000000"
 preserveAspectRatio="xMidYMid meet">
<metadata>
Created by potrace 1.11, written by Peter Selinger 2001-2013
</metadata>
<g transform="translate(0.000000,700.000000) scale(0.100000,-0.100000)"
fill="#000000" stroke="none">
<path d="M3744 6621 c-69 -23 -124 -69 -159 -133 -38 -69 -41 -168 -8 -238 82
-173 308 -215 440 -83 60 59 83 112 83 193 0 189 -180 321 -356 261z"/>
<path d="M4547 5642 c-196 -196 -357 -365 -357 -374 0 -19 83 -89 139 -117
143 -72 349 -72 486 1 182 96 288 282 280 489 -4 91 -19 147 -59 228 -32 62
-92 131 -115 131 -9 0 -177 -161 -374 -358z"/>
<path d="M2237 5482 c-132 -47 -208 -183 -176 -316 58 -241 370 -293 503 -83
9 16 19 36 22 45 17 72 19 93 12 140 -26 165 -202 269 -361 214z"/>
<path d="M5615 4972 c-83 -39 -132 -128 -121 -218 15 -128 135 -210 260 -179
61 16 94 41 130 98 58 94 31 216 -64 282 -55 38 -145 45 -205 17z"/>
<path d="M2975 4479 c-157 -22 -233 -201 -139 -326 l25 -33 -243 0 c-134 0
-257 -2 -275 -4 -47 -7 -87 -31 -121 -71 -37 -46 -51 -91 -46 -155 4 -46 2
-50 -13 -42 -10 5 -38 19 -63 30 -25 11 -86 38 -136 61 -98 44 -147 51 -194
26 -42 -22 -69 -64 -134 -210 -32 -71 -61 -133 -65 -137 -3 -4 -44 29 -89 73
-98 96 -153 124 -223 116 -85 -10 -136 -48 -171 -126 -30 -64 -18 -156 24
-203 7 -8 33 -35 57 -61 l44 -46 -35 6 c-53 8 -162 -14 -235 -48 -131 -61
-235 -201 -260 -349 -6 -39 -5 -136 1 -158 7 -20 2 -21 -186 -24 -216 -3 -226
-6 -268 -80 -21 -38 -21 -42 -18 -595 3 -508 5 -562 21 -597 9 -22 16 -40 15
-41 -2 -1 -29 -14 -60 -28 -219 -99 -251 -388 -58 -522 34 -24 38 -30 29 -47
-18 -34 -19 -126 -2 -179 21 -64 89 -133 155 -157 34 -12 51 -24 59 -45 6 -15
33 -47 59 -71 90 -80 -203 -74 3085 -72 l2940 1 48 25 c50 25 110 83 128 123
6 14 29 30 57 40 88 31 156 118 167 211 5 40 -3 94 -22 142 -3 8 1 14 10 14
25 0 107 88 130 138 42 94 26 224 -39 309 -30 40 -106 91 -147 100 -37 8 -39
15 -22 57 36 85 8 202 -66 281 l-44 47 0 497 c0 460 -2 500 -19 538 -11 26
-31 48 -56 62 -35 19 -53 21 -218 21 l-180 0 3 83 c5 139 -39 258 -131 352
-96 98 -213 145 -349 142 l-73 -2 52 55 c68 71 88 110 88 174 2 116 -89 206
-205 206 -68 0 -107 -22 -194 -109 -77 -75 -81 -78 -91 -58 -14 27 -78 168
-102 222 -52 119 -132 145 -263 86 -34 -16 -98 -46 -142 -66 -44 -21 -104 -48
-132 -61 l-53 -24 -47 48 c-62 61 -104 71 -296 69 -81 -1 -147 -1 -147 1 0 2
14 15 30 29 61 51 91 147 67 218 -24 71 -88 130 -153 141 -48 8 -1014 11
-1069 3z"/>
</g>
</svg>
